<svg xmlns="http://www.w3.org/2000/svg" width="24" height="24" viewBox="0 0 24 24">
    <g fill="none" fill-rule="evenodd">
        <g>
            <g>
                <g>
                    <path fill="#70706E" d="M.191 7.218H.37l-.165.691c-.025.103-.02.18.014.231.034.052.097.078.189.078.091 0 .166-.026.225-.078.058-.051.1-.128.124-.231l.166-.691h.18l-.17.708c-.036.154-.102.27-.196.346-.094.076-.217.114-.37.114-.152 0-.257-.038-.314-.114-.057-.076-.067-.192-.03-.346l.17-.708zM1.078 8.356l.283-1.183.539.696c.014.02.029.04.043.062.014.023.029.048.044.076l.189-.79h.167L2.06 8.4l-.55-.708c-.015-.02-.028-.04-.041-.06-.013-.022-.025-.044-.035-.067l-.19.79h-.166zM2.328 8.356L2.6 7.218 2.78 7.218 2.508 8.356zM2.767 8.356L3.04 7.218 3.659 7.218 3.621 7.375 3.182 7.375 3.114 7.659 3.553 7.659 3.514 7.821 3.076 7.821 2.948 8.356zM3.585 8.356L3.857 7.218 4.038 7.218 3.765 8.356zM4.024 8.356L4.297 7.218 4.916 7.218 4.878 7.375 4.44 7.375 4.371 7.66 4.81 7.66 4.771 7.823 4.332 7.823 4.244 8.19 4.683 8.19 4.644 8.356zM5.07 8.189h.152c.084 0 .148-.006.192-.017.044-.012.085-.03.122-.058.051-.037.094-.082.128-.137.034-.055.06-.118.077-.191.017-.073.022-.136.014-.19-.008-.055-.028-.101-.061-.138-.025-.027-.058-.046-.1-.058-.04-.01-.107-.017-.2-.017h-.13l-.193.806zm-.22.167l.273-1.138h.243c.158 0 .267.008.328.024.06.017.11.044.15.082.052.05.085.115.1.194.013.079.008.169-.016.27-.024.1-.062.19-.114.268-.051.078-.115.143-.192.193-.057.039-.12.066-.185.082-.066.017-.164.025-.295.025H4.85zM6.856 7.694h.054c.114 0 .194-.012.238-.034.045-.022.075-.061.09-.118.017-.06.008-.103-.026-.128-.034-.025-.106-.038-.215-.038h-.053l-.088.318zm-.054.151l-.14.511h-.195l.313-1.138h.313c.093 0 .16.004.202.013.04.01.075.024.102.045.032.027.054.062.064.107.01.045.008.094-.007.148-.015.054-.04.104-.075.15-.035.045-.076.08-.123.107-.038.02-.08.035-.127.044-.046.009-.115.013-.208.013h-.12zM7.55 7.909h.309l-.052-.26-.006-.057c-.002-.021-.004-.045-.004-.072l-.036.07-.036.06-.175.259zm.391.447l-.055-.293h-.44l-.199.293h-.19l.821-1.183.254 1.183h-.19zM8.39 8.356l.125-.52-.226-.618h.19l.14.386.01.04c.005.015.01.032.014.051l.034-.051c.012-.016.024-.031.036-.044l.33-.382h.18l-.53.617-.124.52h-.18zM10.11 7.794l.008-.073.01-.083c-.012.026-.024.052-.039.078-.014.026-.031.052-.05.08l-.436.606-.142-.619c-.006-.025-.01-.05-.013-.074-.003-.024-.006-.047-.007-.07-.006.023-.014.048-.023.074-.01.027-.021.054-.035.082l-.253.56h-.166L9.51 7.17l.156.718.01.057.014.098c.018-.033.044-.074.08-.125l.02-.03.492-.718-.016 1.186H10.1l.011-.562zM10.41 8.356L10.683 7.218 11.302 7.218 11.264 7.375 10.825 7.375 10.757 7.66 11.196 7.66 11.157 7.823 10.718 7.823 10.63 8.19 11.069 8.19 11.029 8.356zM11.236 8.356l.283-1.183.538.696c.015.02.03.04.044.062.014.023.029.048.044.076l.189-.79h.166L12.217 8.4l-.55-.708c-.014-.02-.028-.04-.04-.06-.013-.022-.025-.044-.036-.067l-.189.79h-.166zM13.076 7.375L12.841 8.356 12.661 8.356 12.895 7.375 12.601 7.375 12.638 7.218 13.407 7.218 13.369 7.375zM13.263 8.128l.16-.068c.002.05.018.09.047.116.03.027.074.04.13.04.054 0 .1-.015.139-.046.039-.03.065-.071.077-.123.016-.067-.024-.126-.12-.178l-.03-.018c-.108-.06-.176-.116-.205-.166-.029-.05-.035-.11-.018-.181.023-.093.071-.168.146-.225.076-.058.163-.087.262-.087.082 0 .147.016.194.049.047.032.074.079.081.14l-.159.074c-.013-.036-.031-.062-.054-.079-.022-.016-.051-.024-.085-.024-.049 0-.09.013-.125.038-.035.026-.057.061-.068.105-.016.068.031.132.142.19l.02.012c.098.051.16.102.19.152.029.05.035.111.017.185-.026.108-.08.194-.16.257-.082.063-.18.095-.292.095-.094 0-.167-.022-.216-.067-.05-.044-.074-.108-.073-.19M14.595 8.356L14.868 7.218 15.048 7.218 14.775 8.356zM15.035 8.356l.283-1.183.538.696c.014.02.029.04.043.062.015.023.03.048.044.076l.19-.79h.166L16.016 8.4l-.55-.708c-.014-.02-.028-.04-.04-.06-.014-.022-.025-.044-.036-.067l-.19.79h-.165zM16.874 7.375L16.639 8.356 16.459 8.356 16.694 7.375 16.399 7.375 16.437 7.218 17.205 7.218 17.168 7.375zM17.071 8.356L17.343 7.218 17.962 7.218 17.925 7.375 17.486 7.375 17.418 7.66 17.856 7.66 17.817 7.823 17.379 7.823 17.291 8.19 17.729 8.19 17.69 8.356zM18.296 7.703h.038c.114 0 .192-.011.236-.034.043-.023.073-.063.09-.122.017-.062.01-.106-.023-.132-.032-.026-.102-.039-.21-.039h-.039l-.092.327zm-.055.144l-.144.509h-.2l.323-1.138h.298c.087 0 .154.005.2.015.044.01.081.026.109.049.033.027.054.063.064.106.01.044.007.091-.008.143-.025.091-.071.163-.137.214-.065.052-.15.083-.252.093l.306.518h-.241l-.293-.51h-.025z" transform="translate(-865 -268) translate(865 268) translate(0 8)"/>
                    <path fill="#70706E" d="M18.766 8.356L19.038 7.218 19.657 7.218 19.62 7.375 19.181 7.375 19.113 7.659 19.552 7.659 19.513 7.821 19.074 7.821 18.946 8.356zM19.866 7.909h.31l-.052-.26c-.003-.016-.005-.035-.007-.057l-.004-.072-.036.07-.035.06-.176.259zm.392.447l-.056-.293h-.44l-.198.293h-.19l.82-1.183.254 1.183h-.19zM21.622 7.495c-.04-.045-.086-.078-.138-.1-.051-.023-.108-.034-.171-.034-.121 0-.23.04-.325.12-.095.08-.157.183-.188.31-.03.123-.016.224.038.304.055.08.14.12.252.12.065 0 .13-.012.196-.036.065-.024.13-.06.197-.108l-.05.209c-.058.035-.117.062-.178.08-.061.017-.125.026-.192.026-.085 0-.16-.014-.225-.043-.065-.028-.119-.07-.16-.125-.04-.055-.067-.119-.078-.193-.012-.074-.007-.152.013-.236.02-.083.053-.162.1-.235.046-.073.104-.138.172-.193.068-.056.142-.098.22-.127.078-.029.158-.043.241-.043.065 0 .125.01.18.029.054.02.104.049.15.088l-.054.187zM21.639 8.356L21.912 7.218 22.531 7.218 22.493 7.375 22.055 7.375 21.986 7.66 22.425 7.66 22.386 7.823 21.947 7.823 21.859 8.19 22.298 8.19 22.258 8.356z" transform="translate(-865 -268) translate(865 268) translate(0 8)"/>
                    <path fill="#6D6E70" d="M18.35 6.226L17.111 6.226 18.835 0 20.074 0zM17.707.197c-.086-.119-.219-.178-.399-.178h-6.816l-.338 1.219H16.355l-.36 1.302h-4.961v-.002h-1.24L8.765 6.252h1.24l.691-2.493h5.577c.174 0 .338-.06.492-.178.154-.119.255-.266.303-.44l.69-2.494c.051-.181.034-.332-.051-.45M8.043 5.837c-.068.247-.293.418-.549.418H1.1c-.175 0-.304-.06-.39-.179-.084-.118-.103-.265-.054-.44L2.215.018h1.241L2.062 5.035h4.963L8.42.018h1.24l-1.616 5.82z" transform="translate(-865 -268) translate(865 268) translate(0 8)"/>
                    <path fill="#0E8041" d="M22.215 0.012L23.785 3.133 20.486 6.253z" transform="translate(-865 -268) translate(865 268) translate(0 8)"/>
                    <path fill="#E87626" d="M21.115 0.012L22.683 3.133 19.383 6.253z" transform="translate(-865 -268) translate(865 268) translate(0 8)"/>
                </g>
            </g>
        </g>
    </g>
</svg>
